<?xml version="1.0" encoding="UTF-8"?>
<!DOCTYPE svg PUBLIC "-//W3C//DTD SVG 1.1//EN" "http://www.w3.org/Graphics/SVG/1.1/DTD/svg11.dtd">
<svg xmlns="http://www.w3.org/2000/svg" version="1.1" width="190px" height="190px" style="shape-rendering:geometricPrecision; text-rendering:geometricPrecision; image-rendering:optimizeQuality; fill-rule:evenodd; clip-rule:evenodd" xmlns:xlink="http://www.w3.org/1999/xlink">
<g><path style="opacity:1" fill="#fdfefe" d="M -0.5,-0.5 C 62.8333,-0.5 126.167,-0.5 189.5,-0.5C 189.5,62.8333 189.5,126.167 189.5,189.5C 126.167,189.5 62.8333,189.5 -0.5,189.5C -0.5,126.167 -0.5,62.8333 -0.5,-0.5 Z"/></g>
<g><path style="opacity:1" fill="#369794" d="M 160.5,53.5 C 159.047,59.267 158.38,65.267 158.5,71.5C 158.501,75.3492 158.835,79.0159 159.5,82.5C 159.805,95.868 159.305,109.201 158,122.5C 156.646,129.566 154.312,136.232 151,142.5C 146.833,148 142,152.833 136.5,157C 122.635,166.363 108.635,175.53 94.5,184.5C 79.158,175.164 64.158,165.331 49.5,155C 37.458,143.749 30.6246,129.916 29,113.5C 28.6667,94.5 28.3333,75.5 28,56.5C 27.2586,48.9211 25.7586,41.5877 23.5,34.5C 45.7221,36.2582 65.3887,30.0915 82.5,16C 86.3484,11.9844 90.3484,8.15111 94.5,4.5C 112.63,26.3306 135.963,36.3306 164.5,34.5C 163.568,41.0401 162.234,47.3735 160.5,53.5 Z"/></g>
<g><path style="opacity:1" fill="#fcfcfc" d="M 93.5,23.5 C 94.552,23.3505 95.552,23.5172 96.5,24C 111.42,40.6245 130.087,48.7912 152.5,48.5C 150.034,54.5749 148.534,60.9083 148,67.5C 147.667,83.5 147.333,99.5 147,115.5C 146.294,127.411 141.461,137.244 132.5,145C 120.302,153.363 107.969,161.53 95.5,169.5C 83.6991,162.197 72.0324,154.697 60.5,147C 50.1198,137.893 44.2865,126.393 43,112.5C 42.6667,97.5 42.3333,82.5 42,67.5C 41.3041,61.0533 40.1374,54.72 38.5,48.5C 59.8747,48.2896 78.0414,40.6229 93,25.5C 93.4643,24.9056 93.631,24.2389 93.5,23.5 Z"/></g>
<g><path style="opacity:1" fill="#7dbcb9" d="M 160.5,53.5 C 159.801,63.1507 159.468,72.8174 159.5,82.5C 158.835,79.0159 158.501,75.3492 158.5,71.5C 158.38,65.267 159.047,59.267 160.5,53.5 Z"/></g>
<g><path style="opacity:1" fill="#c23633" d="M 68.5,123.5 C 79.5,124.167 90.5,124.833 101.5,125.5C 89.8286,125.667 78.1619,125.5 66.5,125C 65.3333,123.833 64.1667,122.667 63,121.5C 62.3333,103.5 62.3333,85.5 63,67.5C 65.4239,64.0334 68.5906,63.0334 72.5,64.5C 70.5352,65.2922 68.5352,65.9588 66.5,66.5C 65.7492,67.376 65.2492,68.376 65,69.5C 64.3333,86.5 64.3333,103.5 65,120.5C 65.7202,122.056 66.8868,123.056 68.5,123.5 Z"/></g>
<g><path style="opacity:1" fill="#c33632" d="M 85.5,63.5 C 97.5046,63.3335 109.505,63.5001 121.5,64C 122.333,64.8333 123.167,65.6667 124,66.5C 124.667,84.8333 124.667,103.167 124,121.5C 121.894,125.458 118.727,126.458 114.5,124.5C 116.423,123.692 118.423,123.192 120.5,123C 121.701,122.097 122.535,120.931 123,119.5C 123.958,102.1 123.624,84.767 122,67.5C 121.5,67 121,66.5 120.5,66C 108.457,66.1497 96.7903,65.3163 85.5,63.5 Z"/></g>
<g><path style="opacity:1" fill="#bf2b27" d="M 74.5,72.5 C 77.5184,72.3354 80.5184,72.502 83.5,73C 86.9992,78.2025 90.8325,83.0358 95,87.5C 99.1432,82.687 103.31,77.8536 107.5,73C 109.902,72.1859 112.235,72.3526 114.5,73.5C 109.358,80.4765 104.024,87.3099 98.5,94C 103.623,101.079 108.623,108.246 113.5,115.5C 110.167,116.833 106.833,116.833 103.5,115.5C 100.305,110.431 96.6379,105.765 92.5,101.5C 88.1549,105.847 84.1549,110.514 80.5,115.5C 77.8333,116.833 75.1667,116.833 72.5,115.5C 77.9591,108.74 83.2925,101.906 88.5,95C 84.1291,88.4298 79.6291,81.9298 75,75.5C 74.5172,74.552 74.3505,73.552 74.5,72.5 Z"/></g>
<g><path style="opacity:1" fill="#d67777" d="M 68.5,123.5 C 79.8529,123.168 91.1862,123.501 102.5,124.5C 102.376,125.107 102.043,125.44 101.5,125.5C 90.5,124.833 79.5,124.167 68.5,123.5 Z"/></g>
</svg>
